<svg xmlns="http://www.w3.org/2000/svg" viewBox="0 0 772 390" width="772" height="390" fill="none" font-family="Inter, ui-sans-serif, system-ui, -apple-system, &#39;Segoe UI&#39;, Roboto, Arial, sans-serif">
  
  <defs>
    <marker id="arrow" markerWidth="8" markerHeight="8" refX="5.2" refY="3" orient="auto-start-reverse">
      <path d="M0.75 0.5 L6 3 L0.75 5.5" fill="none" stroke="#087F8C" stroke-width="1.5" stroke-linecap="round" stroke-linejoin="round"></path>
    </marker>
  </defs>

  
  <rect x="8.75" y="8.75" width="754.5" height="372" rx="16" fill="#F8FAFC" stroke="#ECEFF3" stroke-width="1.5"></rect>

  
  <rect x="24.75" y="40.75" width="330.5" height="96.5" rx="12" fill="#FFFFFF" stroke="#B8C6D8" stroke-width="1.5"></rect>
  <path d="M24.75 52 A11.25 11.25 0 0 1 36 40.75 L344 40.75 A11.25 11.25 0 0 1 355.25 52 L355.25 80 L24.75 80 Z" fill="#F1F5F9"></path>
  <line x1="24.75" y1="80" x2="355.25" y2="80" stroke="#B8C6D8" stroke-width="1.5"></line>
  <circle cx="48" cy="60" r="5" fill="#FF5F57"></circle>
  <circle cx="68" cy="60" r="5" fill="#FEBC2E"></circle>
  <circle cx="88" cy="60" r="5" fill="#28C840"></circle>

  <rect x="112.75" y="48.75" width="230.5" height="22.5" rx="8" fill="#FFFFFF" stroke="#C9D3E0" stroke-width="1.5"></rect>
  <g stroke="#64748B" stroke-width="1.5" stroke-linecap="round" stroke-linejoin="round">
    <rect x="124.75" y="57.75" width="9" height="7" rx="2"></rect>
    <path d="M126.75 57.75 v-2 a2.75 2.75 0 0 1 5.5 0 v2"></path>
  </g>
  <text x="144" y="60" font-size="13.5" dominant-baseline="central" fill="#64748B">http://<tspan fill="#0F172A">e-commerce.com</tspan>/</text>

  <rect x="45.75" y="95.75" width="288.5" height="34" rx="8" fill="#E8F3F4" stroke="#087F8C" stroke-width="1.5"></rect>
  <g transform="translate(64,107) scale(0.6)" stroke="#087F8C" stroke-width="1.7" stroke-linecap="round" stroke-linejoin="round" fill="none">
    <path d="M9 17H7a5 5 0 0 1 0-10h2"></path>
    <path d="M15 7h2a5 5 0 0 1 0 10h-2"></path>
    <line x1="8" y1="12" x2="16" y2="12"></line>
  </g>
  <text x="82" y="114" font-size="13" font-style="italic" font-weight="500" dominant-baseline="central" fill="#087F8C">http://e-commerce.com/sitemap.xml</text>

  
  <rect x="24.75" y="164.75" width="330.5" height="200" rx="12" fill="#F3F8FA" stroke="#B8CBD2" stroke-width="1.5"></rect>
  <path d="M24.75 176 A11.25 11.25 0 0 1 36 164.75 L344 164.75 A11.25 11.25 0 0 1 355.25 176 L355.25 196.75 L24.75 196.75 Z" fill="#EAF2F4"></path>
  <line x1="24.75" y1="196.75" x2="355.25" y2="196.75" stroke="#B8CBD2" stroke-width="1.5"></line>
  <circle cx="40" cy="180.75" r="2.5" fill="#FF5F57"></circle>
  <circle cx="49" cy="180.75" r="2.5" fill="#FEBC2E"></circle>
  <circle cx="58" cy="180.75" r="2.5" fill="#28C840"></circle>
  <text x="190" y="181" font-size="13.5" font-weight="500" text-anchor="middle" dominant-baseline="central" fill="#475569">Item</text>

  <rect x="40.75" y="208.75" width="298.5" height="32" rx="8" fill="#EAF2F4" stroke="#B8CBD2" stroke-width="1.5"></rect>
  <text x="190" y="225" font-size="13" font-weight="500" text-anchor="middle" dominant-baseline="central" fill="#475569">Title</text>
  <rect x="40.75" y="252.75" width="298.5" height="28" rx="8" fill="#EAF2F4" stroke="#B8CBD2" stroke-width="1.5"></rect>
  <text x="190" y="267" font-size="13" font-weight="500" text-anchor="middle" dominant-baseline="central" fill="#475569">Price</text>
  <rect x="40.75" y="292.75" width="298.5" height="60" rx="8" fill="#EAF2F4" stroke="#B8CBD2" stroke-width="1.5"></rect>
  <text x="190" y="323" font-size="13" font-weight="500" text-anchor="middle" dominant-baseline="central" fill="#475569">Description</text>

  
  <rect x="392.75" y="24.75" width="354.5" height="273.5" rx="12" fill="#FFFFFF" stroke="#B8C6D8" stroke-width="1.5"></rect>
  <text x="408" y="48" font-size="14" font-weight="600" fill="#0F172A">Sitemap</text>

  <rect x="408.75" y="64.75" width="261" height="28.5" rx="8" fill="#087F8C"></rect>
  <text x="420" y="79.5" font-size="13" font-weight="500" dominant-baseline="central" fill="#FFFFFF">Start URL</text>

  <rect x="408.75" y="112.75" width="321" height="169.5" rx="12" fill="#F8FAFC" stroke="#B8CBD2" stroke-width="1.5" stroke-dasharray="5 4"></rect>
  <text x="424" y="136" font-size="13" font-weight="500" fill="#475569">Selectors</text>

  
  <rect x="424.75" y="152.75" width="253" height="28.5" rx="8" fill="#E9F6EC" stroke="#7FC08A" stroke-width="1.5"></rect>
  <g transform="translate(435,160) scale(0.55)" stroke="#2F7D32" stroke-width="2.5" stroke-linecap="round" stroke-linejoin="round" fill="none">
    <path d="M9 17H7a5 5 0 0 1 0-10h2"></path>
    <path d="M15 7h2a5 5 0 0 1 0 10h-2"></path>
    <line x1="8" y1="12" x2="16" y2="12"></line>
  </g>
  <text x="458" y="167" font-size="13" font-weight="500" dominant-baseline="central" fill="#2F7D32">Sitemap.xml link selector</text>

  
  <path d="M433 181.25 L433 209.5 L442.75 209.5" fill="none" stroke="#7FC08A" stroke-width="1.5" stroke-linecap="round" stroke-linejoin="round"></path>

  
  <rect x="442.75" y="195.25" width="253" height="28.5" rx="8" fill="#E9F6EC" stroke="#7FC08A" stroke-width="1.5"></rect>
  <g transform="translate(453,203) scale(0.58)" stroke="#2F7D32" stroke-width="2.4" stroke-linecap="round" stroke-linejoin="round" fill="none">
    <rect x="3" y="3" width="18" height="18" rx="3"></rect>
    <line x1="3" y1="9" x2="21" y2="9"></line>
  </g>
  <text x="478" y="209.5" font-size="13" font-weight="500" dominant-baseline="central" fill="#2F7D32">Element selector</text>

  
  <path d="M451 223.75 L451 252 L460.75 252" fill="none" stroke="#7FC08A" stroke-width="1.5" stroke-linecap="round" stroke-linejoin="round"></path>

  
  <rect x="460.75" y="237.75" width="253" height="28.5" rx="8" fill="#E9F6EC" stroke="#7FC08A" stroke-width="1.5"></rect>
  <g transform="translate(470,245) scale(0.58)" stroke="#2F7D32" stroke-width="2.4" stroke-linecap="round" stroke-linejoin="round" fill="none">
    <rect x="3" y="3" width="18" height="18" rx="3"></rect>
    <line x1="3" y1="9" x2="21" y2="9"></line>
  </g>
  <text x="494" y="252" font-size="13" font-weight="500" dominant-baseline="central" fill="#2F7D32">Selectors for data extraction</text>

  
  <g stroke="#087F8C" stroke-width="1.5" stroke-linecap="round" marker-end="url(#arrow)">
    <line x1="408" y1="72" x2="345" y2="60"></line>
    <line x1="424" y1="167" x2="334" y2="113"></line>
    <line x1="442" y1="209" x2="355" y2="180"></line>
    <line x1="460" y1="252" x2="340" y2="225"></line>
    <line x1="460" y1="252" x2="340" y2="267"></line>
    <line x1="460" y1="252" x2="340" y2="323"></line>
  </g>
</svg>