<?xml version="1.0" encoding="UTF-8"?>
<svg xmlns="http://www.w3.org/2000/svg" xmlns:xlink="http://www.w3.org/1999/xlink" width="15pt" height="15pt" viewBox="0 0 15 15" version="1.1">
<g id="surface32544955">
<path style=" stroke:none;fill-rule:nonzero;fill:rgb(90.196079%,39.215687%,32.941177%);fill-opacity:1;" d="M 7.5 1.25 C 4.054688 1.25 1.25 4.054688 1.25 7.5 C 1.25 10.945312 4.054688 13.75 7.5 13.75 C 10.945312 13.75 13.75 10.945312 13.75 7.5 C 13.75 4.054688 10.945312 1.25 7.5 1.25 Z M 7.5 2.1875 C 10.441406 2.1875 12.8125 4.558594 12.8125 7.5 C 12.8125 10.441406 10.441406 12.8125 7.5 12.8125 C 4.558594 12.8125 2.1875 10.441406 2.1875 7.5 C 2.1875 4.558594 4.558594 2.1875 7.5 2.1875 Z M 7.5 4.375 C 6.289062 4.375 5.234375 5.070312 4.714844 6.085938 L 4.53125 5.632812 C 4.464844 5.453125 4.289062 5.332031 4.097656 5.332031 C 3.941406 5.332031 3.792969 5.410156 3.707031 5.542969 C 3.617188 5.671875 3.601562 5.839844 3.664062 5.984375 L 4.285156 7.519531 C 4.382812 7.757812 4.65625 7.875 4.894531 7.777344 L 6.429688 7.160156 C 6.589844 7.097656 6.703125 6.957031 6.730469 6.789062 C 6.753906 6.621094 6.6875 6.453125 6.550781 6.347656 C 6.414062 6.242188 6.234375 6.222656 6.078125 6.289062 L 5.554688 6.5 C 5.914062 5.796875 6.648438 5.3125 7.5 5.3125 C 8.167969 5.3125 8.761719 5.609375 9.164062 6.078125 C 9.269531 6.210938 9.441406 6.277344 9.609375 6.246094 C 9.777344 6.21875 9.917969 6.097656 9.972656 5.9375 C 10.027344 5.777344 9.992188 5.597656 9.875 5.46875 C 9.304688 4.800781 8.449219 4.375 7.5 4.375 Z M 10.273438 7.1875 C 10.21875 7.1875 10.160156 7.199219 10.105469 7.222656 L 8.570312 7.84375 C 8.410156 7.902344 8.296875 8.042969 8.269531 8.210938 C 8.246094 8.378906 8.3125 8.546875 8.449219 8.652344 C 8.585938 8.757812 8.765625 8.777344 8.921875 8.710938 L 9.445312 8.5 C 9.085938 9.203125 8.351562 9.6875 7.5 9.6875 C 6.832031 9.6875 6.238281 9.390625 5.835938 8.921875 C 5.730469 8.789062 5.558594 8.722656 5.390625 8.753906 C 5.222656 8.78125 5.082031 8.902344 5.027344 9.0625 C 4.972656 9.222656 5.007812 9.402344 5.125 9.53125 C 5.695312 10.199219 6.550781 10.625 7.5 10.625 C 8.710938 10.625 9.765625 9.929688 10.285156 8.914062 L 10.46875 9.367188 C 10.527344 9.523438 10.667969 9.636719 10.835938 9.660156 C 11.003906 9.683594 11.171875 9.617188 11.273438 9.484375 C 11.375 9.351562 11.402344 9.171875 11.335938 9.015625 L 10.714844 7.480469 C 10.644531 7.300781 10.46875 7.183594 10.273438 7.1875 Z M 10.273438 7.1875 "/>
</g>
</svg>
