<?xml version="1.0" encoding="UTF-8"?>
<svg xmlns="http://www.w3.org/2000/svg" xmlns:xlink="http://www.w3.org/1999/xlink" width="15pt" height="15pt" viewBox="0 0 15 15" version="1.1">
<g id="surface33156787">
<path style=" stroke:none;fill-rule:nonzero;fill:rgb(36.862746%,74.117649%,36.862746%);fill-opacity:1;" d="M 7.5 1.875 C 4.398438 1.875 1.875 4.398438 1.875 7.5 C 1.875 10.601562 4.398438 13.125 7.5 13.125 C 10.601562 13.125 13.125 10.601562 13.125 7.5 C 13.125 4.398438 10.601562 1.875 7.5 1.875 Z M 7.5 2.8125 C 10.09375 2.8125 12.1875 4.90625 12.1875 7.5 C 12.1875 10.09375 10.09375 12.1875 7.5 12.1875 C 4.90625 12.1875 2.8125 10.09375 2.8125 7.5 C 2.8125 4.90625 4.90625 2.8125 7.5 2.8125 Z M 9.820312 5.625 L 6.890625 8.554688 L 5.367188 7.03125 L 4.710938 7.6875 L 6.890625 9.867188 L 10.476562 6.28125 Z M 9.820312 5.625 "/>
</g>
</svg>
