<?xml version="1.0" encoding="UTF-8"?>
<svg xmlns="http://www.w3.org/2000/svg" xmlns:xlink="http://www.w3.org/1999/xlink" width="15pt" height="15pt" viewBox="0 0 15 15" version="1.1">
<g id="surface32543868">
<path style=" stroke:none;fill-rule:nonzero;fill:rgb(40.000001%,40.000001%,40.000001%);fill-opacity:1;" d="M 6.875 0.625 C 5.847656 0.625 5 1.472656 5 2.5 L 2.5 2.5 C 1.816406 2.5 1.25 3.066406 1.25 3.75 L 1.25 7.5 L 2.5 7.5 C 2.851562 7.5 3.125 7.773438 3.125 8.125 C 3.125 8.476562 2.851562 8.75 2.5 8.75 L 1.25 8.75 L 1.25 12.5 C 1.25 13.183594 1.816406 13.75 2.5 13.75 L 6.25 13.75 L 6.25 12.5 C 6.25 12.148438 6.523438 11.875 6.875 11.875 C 7.226562 11.875 7.5 12.148438 7.5 12.5 L 7.5 13.75 L 11.25 13.75 C 11.933594 13.75 12.5 13.183594 12.5 12.5 L 12.5 10 C 13.527344 10 14.375 9.152344 14.375 8.125 C 14.375 7.097656 13.527344 6.25 12.5 6.25 L 12.5 3.75 C 12.5 3.066406 11.933594 2.5 11.25 2.5 L 8.75 2.5 C 8.75 1.472656 7.902344 0.625 6.875 0.625 Z M 6.875 1.875 C 7.226562 1.875 7.5 2.148438 7.5 2.5 L 7.5 3.75 L 11.25 3.75 L 11.25 7.5 L 12.5 7.5 C 12.851562 7.5 13.125 7.773438 13.125 8.125 C 13.125 8.476562 12.851562 8.75 12.5 8.75 L 11.25 8.75 L 11.25 12.5 L 8.75 12.5 C 8.75 11.472656 7.902344 10.625 6.875 10.625 C 5.847656 10.625 5 11.472656 5 12.5 L 2.5 12.5 L 2.5 10 C 3.527344 10 4.375 9.152344 4.375 8.125 C 4.375 7.097656 3.527344 6.25 2.5 6.25 L 2.5 3.75 L 6.25 3.75 L 6.25 2.5 C 6.25 2.148438 6.523438 1.875 6.875 1.875 Z M 6.875 1.875 "/>
</g>
</svg>
