<?xml version="1.0" encoding="UTF-8"?>
<svg xmlns="http://www.w3.org/2000/svg" xmlns:xlink="http://www.w3.org/1999/xlink" width="15pt" height="15pt" viewBox="0 0 15 15" version="1.1">
<g id="surface32544040">
<path style=" stroke:none;fill-rule:nonzero;fill:rgb(19.607843%,75.294119%,82.745099%);fill-opacity:1;" d="M 8.699219 2.558594 C 7.136719 2.558594 5.8125 3.496094 5.175781 4.820312 C 4.835938 4.585938 4.445312 4.414062 4.003906 4.414062 C 2.886719 4.414062 1.992188 5.300781 1.929688 6.402344 C 0.8125 6.804688 0 7.847656 0 9.101562 C 0 10.703125 1.296875 12 2.898438 12 L 12.328125 12 C 13.800781 12 15 10.800781 15 9.328125 C 15 7.960938 13.953125 6.878906 12.628906 6.722656 C 12.632812 6.648438 12.648438 6.582031 12.648438 6.507812 C 12.648438 4.332031 10.875 2.558594 8.699219 2.558594 Z M 8.699219 3.160156 C 10.550781 3.160156 12.046875 4.65625 12.046875 6.507812 C 12.046875 6.644531 12.035156 6.777344 12.019531 6.917969 L 11.972656 7.257812 L 12.328125 7.257812 C 13.476562 7.257812 14.398438 8.179688 14.398438 9.328125 C 14.398438 10.476562 13.476562 11.398438 12.328125 11.398438 L 2.898438 11.398438 C 1.621094 11.398438 0.601562 10.375 0.601562 9.101562 C 0.601562 8.042969 1.316406 7.148438 2.289062 6.882812 L 2.511719 6.824219 L 2.503906 6.582031 C 2.5 6.539062 2.503906 6.519531 2.503906 6.515625 C 2.503906 5.683594 3.171875 5.015625 4.003906 5.015625 C 4.421875 5.015625 4.800781 5.183594 5.070312 5.457031 L 5.398438 5.792969 L 5.558594 5.351562 C 6.03125 4.078125 7.257812 3.160156 8.699219 3.160156 Z M 8.699219 3.160156 "/>
</g>
</svg>
